<?xml version="1.0" encoding="utf-8"?>
<!-- Generator: Adobe Illustrator 18.0.0, SVG Export Plug-In . SVG Version: 6.00 Build 0)  -->
<!DOCTYPE svg PUBLIC "-//W3C//DTD SVG 1.1//EN" "http://www.w3.org/Graphics/SVG/1.1/DTD/svg11.dtd">
<svg version="1.1" id="Capa_1" xmlns="http://www.w3.org/2000/svg" xmlns:xlink="http://www.w3.org/1999/xlink" x="0px" y="0px"
	 viewBox="0 0 30 30.1" enable-background="new 0 0 30 30.1" xml:space="preserve">
<g>
	<path stroke="#000000" stroke-width="0.15" stroke-miterlimit="10" d="M14,7c0.4,1.2-0.2,2.6-1.4,3c-1.2,0.4-2.6-0.2-3-1.4
		C9.1,7.4,9.8,6,11,5.6C12.3,5.2,13.6,5.8,14,7z M12.5,9.8c1-0.3,1.7-1.6,1.3-2.6c-0.4-1-1.5-1.6-2.6-1.3c-1.1,0.3-1.7,1.6-1.4,2.6
		C10.1,9.5,11.4,10.1,12.5,9.8z"/>
	<path stroke="#000000" stroke-width="0.15" stroke-miterlimit="10" d="M18.9,8.6c0.4,1.2-0.2,2.6-1.4,3c-1.2,0.4-2.6-0.2-3-1.4
		c-0.4-1.2,0.2-2.6,1.5-3C17.1,6.8,18.5,7.4,18.9,8.6z M17.3,11.4c1-0.3,1.7-1.6,1.3-2.6c-0.4-1-1.5-1.6-2.6-1.3
		C15,7.8,14.3,9,14.7,10C15,11.1,16.3,11.7,17.3,11.4z"/>
	<path stroke="#000000" stroke-width="0.15" stroke-miterlimit="10" d="M24.3,9.7c0.4,1.2-0.2,2.6-1.4,3c-1.2,0.4-2.6-0.2-3-1.4
		c-0.4-1.2,0.2-2.6,1.5-3C22.5,7.9,23.9,8.5,24.3,9.7z M22.7,12.5c1-0.3,1.7-1.6,1.3-2.6c-0.4-1-1.5-1.6-2.6-1.3
		c-1.1,0.3-1.7,1.6-1.4,2.6C20.4,12.2,21.6,12.8,22.7,12.5z"/>
	<path stroke="#000000" stroke-width="0.15" stroke-miterlimit="10" d="M15.3,12.4c0.4,1.2-0.2,2.6-1.4,3c-1.2,0.4-2.6-0.2-3-1.4
		c-0.4-1.2,0.2-2.6,1.5-3C13.5,10.5,14.9,11.2,15.3,12.4z M13.7,15.1c1-0.3,1.7-1.6,1.3-2.6c-0.4-1-1.5-1.6-2.6-1.3
		c-1.1,0.3-1.7,1.6-1.4,2.6C11.4,14.8,12.6,15.5,13.7,15.1z"/>
	<path stroke="#000000" stroke-width="0.15" stroke-miterlimit="10" d="M20.4,13.6c0.4,1.2-0.2,2.6-1.4,3c-1.2,0.4-2.6-0.2-3-1.4
		c-0.4-1.2,0.2-2.6,1.5-3C18.6,11.8,20,12.4,20.4,13.6z M18.8,16.4c1-0.3,1.7-1.6,1.3-2.6c-0.4-1-1.5-1.6-2.6-1.3
		c-1.1,0.3-1.7,1.6-1.4,2.6C16.5,16.1,17.8,16.7,18.8,16.4z"/>
	<path stroke="#000000" stroke-width="0.15" stroke-miterlimit="10" d="M16.5,17.4c0.4,1.2-0.2,2.6-1.4,3c-1.2,0.4-2.6-0.2-3-1.4
		c-0.4-1.2,0.2-2.6,1.5-3C14.7,15.6,16.1,16.2,16.5,17.4z M14.9,20.2c1-0.3,1.7-1.6,1.3-2.6c-0.4-1-1.5-1.6-2.6-1.3
		c-1.1,0.3-1.7,1.6-1.4,2.6C12.6,19.9,13.9,20.5,14.9,20.2z"/>
	<path stroke="#000000" stroke-width="0.15" stroke-miterlimit="10" d="M25.5,14.8c0.4,1.2-0.2,2.6-1.4,3c-1.2,0.4-2.6-0.2-3-1.4
		c-0.4-1.2,0.2-2.6,1.5-3C23.7,12.9,25.1,13.6,25.5,14.8z M23.9,17.5c1-0.3,1.7-1.6,1.3-2.6c-0.4-1-1.5-1.6-2.6-1.3
		c-1.1,0.3-1.7,1.6-1.4,2.6C21.6,17.3,22.8,17.9,23.9,17.5z"/>
	<path stroke="#000000" stroke-width="0.15" stroke-miterlimit="10" d="M10.3,10.8c0.4,1.2-0.2,2.6-1.4,3c-1.2,0.4-2.6-0.2-3-1.4
		c-0.4-1.2,0.2-2.6,1.5-3C8.5,8.9,9.9,9.5,10.3,10.8z M8.7,13.5c1-0.3,1.7-1.6,1.3-2.6c-0.4-1-1.5-1.6-2.6-1.3
		c-1.1,0.3-1.7,1.6-1.4,2.6C6.4,13.2,7.6,13.8,8.7,13.5z M11.1,16.3c0.4,1.2-0.2,2.6-1.4,3c-1.2,0.4-2.6-0.2-3-1.4
		c-0.4-1.2,0.2-2.6,1.5-3C9.4,14.5,10.7,15.1,11.1,16.3z M9.5,19.1c1-0.3,1.7-1.6,1.3-2.6c-0.4-1-1.5-1.6-2.6-1.3
		c-1.1,0.3-1.7,1.6-1.4,2.6C7.2,18.8,8.5,19.4,9.5,19.1z M21.9,18.6c0.4,1.2-0.2,2.6-1.4,3c-1.2,0.4-2.6-0.2-3-1.4
		c-0.4-1.2,0.2-2.6,1.5-3C20.1,16.7,21.4,17.3,21.9,18.6z M20.3,21.3c1-0.3,1.7-1.6,1.3-2.6c-0.4-1-1.5-1.6-2.6-1.3
		c-1.1,0.3-1.7,1.6-1.4,2.6C18,21,19.2,21.6,20.3,21.3z M12.9,21.2c0.4,1.2-0.2,2.6-1.4,3c-1.2,0.4-2.6-0.2-3-1.4
		c-0.4-1.2,0.2-2.6,1.5-3C11.1,19.3,12.5,20,12.9,21.2z M11.3,23.9c1-0.3,1.7-1.6,1.3-2.6c-0.4-1-1.5-1.6-2.6-1.3
		c-1.1,0.3-1.7,1.6-1.4,2.6C9,23.7,10.2,24.3,11.3,23.9z M18.1,22.5c0.4,1.2-0.2,2.6-1.4,3c-1.2,0.4-2.6-0.2-3-1.4
		c-0.4-1.2,0.2-2.6,1.5-3C16.3,20.6,17.7,21.2,18.1,22.5z M16.5,25.2c1-0.3,1.7-1.6,1.3-2.6c-0.4-1-1.5-1.6-2.6-1.3
		c-1.1,0.3-1.7,1.6-1.4,2.6C14.2,24.9,15.5,25.5,16.5,25.2z M14.3,26c0.4,1.2-0.2,2.6-1.4,3c-1.2,0.4-2.6-0.2-3-1.4
		c-0.4-1.2,0.2-2.6,1.5-3C12.5,24.1,13.9,24.8,14.3,26z M12.7,28.7c1-0.3,1.7-1.6,1.3-2.6c-0.4-1-1.5-1.6-2.6-1.3
		c-1.1,0.3-1.7,1.6-1.4,2.6C10.4,28.4,11.7,29.1,12.7,28.7z"/>
</g>
<path fill="#FFFFFF" stroke="#000000" stroke-width="0.5" stroke-miterlimit="10" d="M21,5c0,0-1.1,1-1.4,1.9S19.7,8,19.7,8
	s0.7,0.3,1.2-0.6c0.5-0.9,2-3.7,4.4-5.1s1.1-1.7,1.1-1.7s-1-0.1-2,0.9c-1,1-1.7,1.7-1.7,1.7l-3.9-0.1c0,0-1.3,1.1-0.1,1.2
	S21.6,4.3,21,5z"/>
</svg>
